<svg width="18" height="18" viewBox="0 0 18 18" fill="none" xmlns="http://www.w3.org/2000/svg">
<path fill-rule="evenodd" clip-rule="evenodd" d="M13.4875 0C13.8435 0 14.1321 0.335786 14.1321 0.75V17.25C14.1321 17.6642 13.8435 18 13.4875 18C13.1315 18 12.8428 17.6642 12.8428 17.25V0.75C12.8428 0.335786 13.1315 0 13.4875 0Z" fill="#434343"/>
<path fill-rule="evenodd" clip-rule="evenodd" d="M9.82462 3.98851C10.3686 3.35558 11.1065 3 11.8759 3H16.7107C17.0667 3 17.3553 3.33579 17.3553 3.75C17.3553 4.16421 17.0667 4.5 16.7107 4.5H11.8759C11.4484 4.5 11.0385 4.69754 10.7363 5.04918C10.434 5.40081 10.2643 5.87772 10.2643 6.375C10.2643 6.87228 10.434 7.34919 10.7363 7.70083C11.0385 8.05246 11.4484 8.25 11.8759 8.25H15.0991C15.8685 8.25 16.6063 8.60558 17.1503 9.23851C17.6944 9.87145 18 10.7299 18 11.625C18 12.5201 17.6944 13.3786 17.1503 14.0115C16.6063 14.6444 15.8685 15 15.0991 15H9.61961C9.26358 15 8.97496 14.6642 8.97496 14.25C8.97496 13.8358 9.26358 13.5 9.61961 13.5H15.0991C15.5265 13.5 15.9364 13.3025 16.2387 12.9508C16.5409 12.5992 16.7107 12.1223 16.7107 11.625C16.7107 11.1277 16.5409 10.6508 16.2387 10.2992C15.9364 9.94754 15.5265 9.75 15.0991 9.75H11.8759C11.1065 9.75 10.3686 9.39442 9.82462 8.76149C9.28059 8.12855 8.97496 7.27011 8.97496 6.375C8.97496 5.47989 9.28059 4.62145 9.82462 3.98851Z" fill="#434343"/>
<path d="M7.97749 13.845C8.06451 13.9913 8.10803 14.1488 8.10803 14.3175C8.10803 14.52 8.0355 14.6944 7.89046 14.8406C7.75508 14.9756 7.59553 15.0431 7.41181 15.0431C7.14106 15.0431 6.92349 14.9025 6.75911 14.6213L4.8155 11.1113C4.5931 10.7063 4.35619 10.425 4.10478 10.2675C3.85337 10.0988 3.5246 10.0144 3.11847 10.0144H1.47946V14.1319C1.47946 14.4019 1.41177 14.6156 1.2764 14.7731C1.15069 14.9306 0.971803 15.0094 0.73973 15.0094C0.517328 15.0094 0.338439 14.9306 0.203063 14.7731C0.0676877 14.6156 0 14.4019 0 14.1319V3.87188C0 3.61313 0.062853 3.41063 0.188559 3.26438C0.323934 3.10688 0.507658 3.02813 0.73973 3.02813H4.35136C5.48271 3.02813 6.34331 3.32063 6.93316 3.90563C7.53268 4.49063 7.83244 5.34563 7.83244 6.47063C7.83244 7.40438 7.6052 8.16376 7.15073 8.74876C6.69625 9.32251 6.04838 9.68813 5.20712 9.84563C5.45853 9.92438 5.68577 10.065 5.88883 10.2675C6.0919 10.47 6.29013 10.7513 6.48352 11.1113L7.97749 13.845ZM4.1773 8.61376C4.93154 8.61376 5.48754 8.44501 5.84532 8.10751C6.21277 7.75876 6.39649 7.22438 6.39649 6.50438C6.39649 5.78438 6.2176 5.26126 5.85983 4.93501C5.50205 4.59751 4.94121 4.42876 4.1773 4.42876H1.46496V8.61376H4.1773Z" fill="#434343"/>
</svg>
