<svg width="24px" height="24px" viewBox="0 0 75 75" fill="none" xmlns="http://www.w3.org/2000/svg">
<circle cx="37.5" cy="37.5" r="35" stroke="#E92929" stroke-width="5"/>
<path d="M39.5 19C39.5 17.6193 38.3807 16.5 37 16.5C35.6193 16.5 34.5 17.6193 34.5 19H39.5ZM35.2322 56.7678C36.2085 57.7441 37.7915 57.7441 38.7678 56.7678L54.6777 40.8579C55.654 39.8816 55.654 38.2986 54.6777 37.3223C53.7014 36.346 52.1184 36.346 51.1421 37.3223L37 51.4645L22.8579 37.3223C21.8816 36.346 20.2986 36.346 19.3223 37.3223C18.346 38.2986 18.346 39.8816 19.3223 40.8579L35.2322 56.7678ZM34.5 19V55H39.5V19H34.5Z" fill="#E92929"/>
</svg>
