<svg width="24px" height="24px" viewBox="0 0 75 75" fill="none" xmlns="http://www.w3.org/2000/svg">
<circle cx="37.5" cy="37.5" r="35" stroke="#02AB62" stroke-width="5"/>
<path d="M34.5 55C34.5 56.3807 35.6193 57.5 37 57.5C38.3807 57.5 39.5 56.3807 39.5 55H34.5ZM38.7678 17.2322C37.7915 16.2559 36.2085 16.2559 35.2322 17.2322L19.3223 33.1421C18.346 34.1184 18.346 35.7014 19.3223 36.6777C20.2986 37.654 21.8816 37.654 22.8579 36.6777L37 22.5355L51.1421 36.6777C52.1184 37.654 53.7014 37.654 54.6777 36.6777C55.654 35.7014 55.654 34.1184 54.6777 33.1421L38.7678 17.2322ZM39.5 55V19H34.5V55H39.5Z" fill="#02AB62"/>
</svg>
