<svg width="150" height="50" viewBox="0 0 77 12" fill="none" xmlns="http://www.w3.org/2000/svg">
<path d="M0.515991 6.688C0.515991 6.016 0.651991 5.428 0.923991 4.924C1.19599 4.412 1.56799 4.016 2.03999 3.736C2.51999 3.456 3.05599 3.316 3.64799 3.316C4.15999 3.316 4.63599 3.436 5.07599 3.676C5.51599 3.908 5.85199 4.216 6.08399 4.6V1.12H7.18799V10H6.08399V8.764C5.86799 9.156 5.54799 9.48 5.12399 9.736C4.69999 9.984 4.20399 10.108 3.63599 10.108C3.05199 10.108 2.51999 9.964 2.03999 9.676C1.56799 9.388 1.19599 8.984 0.923991 8.464C0.651991 7.944 0.515991 7.352 0.515991 6.688ZM6.08399 6.7C6.08399 6.204 5.98399 5.772 5.78399 5.404C5.58399 5.036 5.31199 4.756 4.96799 4.564C4.63199 4.364 4.25999 4.264 3.85199 4.264C3.44399 4.264 3.07199 4.36 2.73599 4.552C2.39999 4.744 2.13199 5.024 1.93199 5.392C1.73199 5.76 1.63199 6.192 1.63199 6.688C1.63199 7.192 1.73199 7.632 1.93199 8.008C2.13199 8.376 2.39999 8.66 2.73599 8.86C3.07199 9.052 3.44399 9.148 3.85199 9.148C4.25999 9.148 4.63199 9.052 4.96799 8.86C5.31199 8.66 5.58399 8.376 5.78399 8.008C5.98399 7.632 6.08399 7.196 6.08399 6.7Z" fill="white"/>
<path d="M15.0334 6.46C15.0334 6.668 15.0214 6.888 14.9974 7.12H9.74137C9.78137 7.768 10.0014 8.276 10.4014 8.644C10.8094 9.004 11.3014 9.184 11.8774 9.184C12.3494 9.184 12.7414 9.076 13.0534 8.86C13.3734 8.636 13.5974 8.34 13.7254 7.972H14.9014C14.7254 8.604 14.3734 9.12 13.8454 9.52C13.3174 9.912 12.6614 10.108 11.8774 10.108C11.2534 10.108 10.6934 9.968 10.1974 9.688C9.70937 9.408 9.32537 9.012 9.04537 8.5C8.76537 7.98 8.62537 7.38 8.62537 6.7C8.62537 6.02 8.76137 5.424 9.03337 4.912C9.30537 4.4 9.68537 4.008 10.1734 3.736C10.6694 3.456 11.2374 3.316 11.8774 3.316C12.5014 3.316 13.0534 3.452 13.5334 3.724C14.0134 3.996 14.3814 4.372 14.6374 4.852C14.9014 5.324 15.0334 5.86 15.0334 6.46ZM13.9054 6.232C13.9054 5.816 13.8134 5.46 13.6294 5.164C13.4454 4.86 13.1934 4.632 12.8734 4.48C12.5614 4.32 12.2134 4.24 11.8294 4.24C11.2774 4.24 10.8054 4.416 10.4134 4.768C10.0294 5.12 9.80937 5.608 9.75337 6.232H13.9054Z" fill="white"/>
<path d="M18.9228 8.992L20.9628 3.424H22.1268L19.5468 10H18.2748L15.6948 3.424H16.8708L18.9228 8.992Z" fill="white"/>
<path d="M29.0766 4.324H27.6966V10H26.6046V4.324H25.7526V3.424H26.6046V2.956C26.6046 2.22 26.7926 1.684 27.1686 1.348C27.5526 1.004 28.1646 0.832001 29.0046 0.832001V1.744C28.5246 1.744 28.1846 1.84 27.9846 2.032C27.7926 2.216 27.6966 2.524 27.6966 2.956V3.424H29.0766V4.324Z" fill="white"/>
<path d="M30.9138 2.356C30.7058 2.356 30.5298 2.284 30.3858 2.14C30.2418 1.996 30.1698 1.82 30.1698 1.612C30.1698 1.404 30.2418 1.228 30.3858 1.084C30.5298 0.940001 30.7058 0.868001 30.9138 0.868001C31.1138 0.868001 31.2818 0.940001 31.4178 1.084C31.5618 1.228 31.6338 1.404 31.6338 1.612C31.6338 1.82 31.5618 1.996 31.4178 2.14C31.2818 2.284 31.1138 2.356 30.9138 2.356ZM31.4418 3.424V10H30.3498V3.424H31.4418Z" fill="white"/>
<path d="M36.5069 3.304C37.3069 3.304 37.9549 3.548 38.4509 4.036C38.9469 4.516 39.1949 5.212 39.1949 6.124V10H38.1149V6.28C38.1149 5.624 37.9509 5.124 37.6229 4.78C37.2949 4.428 36.8469 4.252 36.2789 4.252C35.7029 4.252 35.2429 4.432 34.8989 4.792C34.5629 5.152 34.3949 5.676 34.3949 6.364V10H33.3029V3.424H34.3949V4.36C34.6109 4.024 34.9029 3.764 35.2709 3.58C35.6469 3.396 36.0589 3.304 36.5069 3.304Z" fill="white"/>
<path d="M40.5707 6.688C40.5707 6.016 40.7067 5.428 40.9787 4.924C41.2507 4.412 41.6227 4.016 42.0947 3.736C42.5747 3.456 43.1067 3.316 43.6907 3.316C44.2667 3.316 44.7667 3.44 45.1907 3.688C45.6147 3.936 45.9307 4.248 46.1387 4.624V3.424H47.2427V10H46.1387V8.776C45.9227 9.16 45.5987 9.48 45.1667 9.736C44.7427 9.984 44.2467 10.108 43.6787 10.108C43.0947 10.108 42.5667 9.964 42.0947 9.676C41.6227 9.388 41.2507 8.984 40.9787 8.464C40.7067 7.944 40.5707 7.352 40.5707 6.688ZM46.1387 6.7C46.1387 6.204 46.0387 5.772 45.8387 5.404C45.6387 5.036 45.3667 4.756 45.0227 4.564C44.6867 4.364 44.3147 4.264 43.9067 4.264C43.4987 4.264 43.1267 4.36 42.7907 4.552C42.4547 4.744 42.1867 5.024 41.9867 5.392C41.7867 5.76 41.6867 6.192 41.6867 6.688C41.6867 7.192 41.7867 7.632 41.9867 8.008C42.1867 8.376 42.4547 8.66 42.7907 8.86C43.1267 9.052 43.4987 9.148 43.9067 9.148C44.3147 9.148 44.6867 9.052 45.0227 8.86C45.3667 8.66 45.6387 8.376 45.8387 8.008C46.0387 7.632 46.1387 7.196 46.1387 6.7Z" fill="white"/>
<path d="M52.2921 3.304C53.0921 3.304 53.7401 3.548 54.2361 4.036C54.7321 4.516 54.9801 5.212 54.9801 6.124V10H53.9001V6.28C53.9001 5.624 53.7361 5.124 53.4081 4.78C53.0801 4.428 52.6321 4.252 52.0641 4.252C51.4881 4.252 51.0281 4.432 50.6841 4.792C50.3481 5.152 50.1801 5.676 50.1801 6.364V10H49.0881V3.424H50.1801V4.36C50.3961 4.024 50.6881 3.764 51.0561 3.58C51.4321 3.396 51.8441 3.304 52.2921 3.304Z" fill="white"/>
<path d="M56.3558 6.7C56.3558 6.02 56.4918 5.428 56.7638 4.924C57.0358 4.412 57.4118 4.016 57.8918 3.736C58.3798 3.456 58.9358 3.316 59.5598 3.316C60.3678 3.316 61.0318 3.512 61.5518 3.904C62.0798 4.296 62.4278 4.84 62.5958 5.536H61.4198C61.3078 5.136 61.0878 4.82 60.7598 4.588C60.4398 4.356 60.0398 4.24 59.5598 4.24C58.9358 4.24 58.4318 4.456 58.0478 4.888C57.6638 5.312 57.4718 5.916 57.4718 6.7C57.4718 7.492 57.6638 8.104 58.0478 8.536C58.4318 8.968 58.9358 9.184 59.5598 9.184C60.0398 9.184 60.4398 9.072 60.7598 8.848C61.0798 8.624 61.2998 8.304 61.4198 7.888H62.5958C62.4198 8.56 62.0678 9.1 61.5398 9.508C61.0118 9.908 60.3518 10.108 59.5598 10.108C58.9358 10.108 58.3798 9.968 57.8918 9.688C57.4118 9.408 57.0358 9.012 56.7638 8.5C56.4918 7.988 56.3558 7.388 56.3558 6.7Z" fill="white"/>
<path d="M70.0529 6.46C70.0529 6.668 70.0409 6.888 70.0169 7.12H64.7609C64.8009 7.768 65.0209 8.276 65.4209 8.644C65.8289 9.004 66.3209 9.184 66.8969 9.184C67.3689 9.184 67.7609 9.076 68.0729 8.86C68.3929 8.636 68.6169 8.34 68.7449 7.972H69.9209C69.7449 8.604 69.3929 9.12 68.8649 9.52C68.3369 9.912 67.6809 10.108 66.8969 10.108C66.2729 10.108 65.7129 9.968 65.2169 9.688C64.7289 9.408 64.3449 9.012 64.0649 8.5C63.7849 7.98 63.6449 7.38 63.6449 6.7C63.6449 6.02 63.7809 5.424 64.0529 4.912C64.3249 4.4 64.7049 4.008 65.1929 3.736C65.6889 3.456 66.2569 3.316 66.8969 3.316C67.5209 3.316 68.0729 3.452 68.5529 3.724C69.0329 3.996 69.4009 4.372 69.6569 4.852C69.9209 5.324 70.0529 5.86 70.0529 6.46ZM68.9249 6.232C68.9249 5.816 68.8329 5.46 68.6489 5.164C68.4649 4.86 68.2129 4.632 67.8929 4.48C67.5809 4.32 67.2329 4.24 66.8489 4.24C66.2969 4.24 65.8249 4.416 65.4329 4.768C65.0489 5.12 64.8289 5.608 64.7729 6.232H68.9249Z" fill="white"/>
<path d="M23.744 9.988C23.536 9.988 23.36 9.916 23.216 9.772C23.072 9.628 23 9.452 23 9.244C23 9.036 23.072 8.86 23.216 8.716C23.36 8.572 23.536 8.5 23.744 8.5C23.944 8.5 24.112 8.572 24.248 8.716C24.392 8.86 24.464 9.036 24.464 9.244C24.464 9.452 24.392 9.628 24.248 9.772C24.112 9.916 23.944 9.988 23.744 9.988Z" fill="#02AB62"/>
<path d="M76.604 8.164C76.604 8.548 76.508 8.916 76.316 9.268C76.124 9.612 75.84 9.9 75.464 10.132C75.096 10.364 74.652 10.496 74.132 10.528V11.5H73.484V10.528C72.756 10.464 72.164 10.232 71.708 9.832C71.252 9.424 71.02 8.908 71.012 8.284H72.176C72.208 8.62 72.332 8.912 72.548 9.16C72.772 9.408 73.084 9.564 73.484 9.628V6.628C72.948 6.492 72.516 6.352 72.188 6.208C71.86 6.064 71.58 5.84 71.348 5.536C71.116 5.232 71 4.824 71 4.312C71 3.664 71.224 3.128 71.672 2.704C72.128 2.28 72.732 2.044 73.484 1.996V1H74.132V1.996C74.812 2.052 75.36 2.272 75.776 2.656C76.192 3.032 76.432 3.524 76.496 4.132H75.332C75.292 3.852 75.168 3.6 74.96 3.376C74.752 3.144 74.476 2.992 74.132 2.92V5.848C74.66 5.984 75.088 6.124 75.416 6.268C75.752 6.404 76.032 6.624 76.256 6.928C76.488 7.232 76.604 7.644 76.604 8.164ZM72.116 4.252C72.116 4.644 72.232 4.944 72.464 5.152C72.696 5.36 73.036 5.532 73.484 5.668V2.896C73.068 2.936 72.736 3.072 72.488 3.304C72.24 3.528 72.116 3.844 72.116 4.252ZM74.132 9.64C74.564 9.592 74.9 9.436 75.14 9.172C75.388 8.908 75.512 8.592 75.512 8.224C75.512 7.832 75.392 7.532 75.152 7.324C74.912 7.108 74.572 6.936 74.132 6.808V9.64Z" fill="#02AB62"/>
</svg>
